<svg xmlns="http://www.w3.org/2000/svg" xmlns:xlink="http://www.w3.org/1999/xlink" width="400" height="400" viewBox="0 0 1000 1000">
  <defs>
    <style>
      .cls-1, .cls-2 {
        fill: #B34A00;
        fill-rule: evenodd;
      }

      .cls-1, .cls-3 {
        stroke: #B34A00;
      }

      .cls-1 {
        stroke-width: 7.41px;
      }

      .cls-3 {
        fill: none;
        stroke-width: 10px;
      }
    </style>
  </defs>
  <path id="Line_1" data-name="Line 1" class="cls-1" d="M197,493v-1H822v1H197Z"/>
  <path id="Guitar_Zone" data-name="Guitar   Zone" class="cls-2" d="M294.7,251.684q-7.129,1.563-26.953,23.828Q240.4,312.33,240.4,336.84,241.281,380,267.356,392.7a0.347,0.347,0,0,1-.391.391v0.391q3.516,0.487,3.516,1.171a0.346,0.346,0,0,0,.39-0.39,5.628,5.628,0,0,1,2.735,1.172l0.781-.391q0,0.683,1.953,1.172a3.021,3.021,0,0,0,1.172-.391A8.584,8.584,0,0,1,281.418,397h0.391l0.781-.39,0.391,0.781a3.1,3.1,0,0,0,1.562-.391l0.781,0.391,3.907-.781q0.585,0.389,5.078.781l1.562-.781a0.345,0.345,0,0,0,.391.39h1.562a5.792,5.792,0,0,1,4.3-2.344h3.125a3.009,3.009,0,0,0-.39-1.171q0-.685,3.125-1.172l-0.782-1.172,1.954-.391,0.781,0.391a2.993,2.993,0,0,1,.39-1.172q1.953-.388,1.954-1.563,5.859-2.147,5.859-3.515,3.516-1.561,3.516-2.735a8.974,8.974,0,0,0,3.125-3.125l-0.391-.781q0.488,0,5.078-4.3h0.391Q312.278,411.058,312.278,422v0.391q0,3.9,5.078,11.719,1.172,0,1.172-1.563h0.39q0.78,2.344,1.563,2.344a1.671,1.671,0,0,0,1.172-1.172l0.781,0.391q1.171-.2,1.172-2.735l1.172,0.781h0.781v-0.781H327.9l0.781-.39v0.39q2.83,0,4.687-4.3l3.907-9.765q3.025-12.5,4.3-12.5,1.173-5.178,2.344-6.25v-0.782l-0.39-.781h0.39q4.688-12.206,5.86-14.062l-0.391-.782q1.659-2.343,1.953-2.343l-0.391-1.953q2.344-4.1,2.344-5.079,5.467-13.864,15.625-44.921,0-5.762,7.422-8.2v0.391q3.9,0,3.906-1.172a3.016,3.016,0,0,1,1.172.391l1.953-1.172a3.032,3.032,0,0,0-.39-1.172,3,3,0,0,1,.39-1.172,0.346,0.346,0,0,1,.391.391,20.687,20.687,0,0,0,4.687-1.172q0-.78-1.562-0.781v-0.391q5.076-3.125,5.859-3.125V309.5q-14.16-.388-20.312-0.39a3.318,3.318,0,0,0-3.125,0h-6.25q-26.758,0-36.328,1.562a0.347,0.347,0,0,0-.391-0.391q-1.27.294-10.547,1.172a0.346,0.346,0,0,0-.39-0.39,3.092,3.092,0,0,1-1.563.39h-1.953a26.632,26.632,0,0,1-5.078-.781q-1.37,0-2.344,2.344l0.391,0.781a45.242,45.242,0,0,0-5.469,10.547v0.391q0,1.075.781,10.546v0.782q0.78,1.563,5.078,5.859a3.908,3.908,0,0,0,1.172-.781H307.2a20.628,20.628,0,0,1,3.516.39l0.781-.39,1.563,0.781a20.6,20.6,0,0,1,3.515-.391l1.954,0.391q8.983-2.637,8.984-3.125h1.172q3.124-.487,3.125-2.344a3.038,3.038,0,0,1,1.172.391,5.51,5.51,0,0,0,3.906-1.563,3.106,3.106,0,0,1,1.562.391l3.125-1.562h0.782q0,0.684-11.719,14.453-29.59,28.516-47.266,28.515-8.985-.389-8.984-1.953h-0.781V375.9a13.3,13.3,0,0,1-4.3-1.171,11.788,11.788,0,0,1-1.563.39l-0.781-.39a0.345,0.345,0,0,1-.391.39,51.517,51.517,0,0,0-6.25-4.3h-1.171a2.978,2.978,0,0,0,.39,1.172q5.077,3.516,5.469,3.516v0.39h-0.391l-1.562-.781L252.9,367.309a3.359,3.359,0,0,0,.39,1.953,0.345,0.345,0,0,0-.39.39q0,0.783,1.171.782v0.781h-0.39l-1.172-.781q-4.1-4.59-5.469-14.453l-1.172.781a23.557,23.557,0,0,0-.781-3.125v-7.813a42.019,42.019,0,0,1,3.125-16.8l-0.391-.781,1.563-1.953v-1.172L249,324.34a11.41,11.41,0,0,1,3.516-4.688l-0.781-1.171q1.172,0,1.172-.782v-0.781l-0.391-.781q1.951,0,1.953-.781l-0.781-1.172v-0.391a3.021,3.021,0,0,1,1.172.391h0.39l-0.781-1.172v-0.391a0.347,0.347,0,0,1,.391.391,0.69,0.69,0,0,0,.781-0.781h-0.781a18.846,18.846,0,0,1,3.515-4.3v-0.782H257.59l0.391-.781a0.346,0.346,0,0,1,.39.391,1.669,1.669,0,0,0,1.172-1.172h-0.781V305.2a2.384,2.384,0,0,1,2.344-1.562v-0.391a0.752,0.752,0,0,0-.782-0.781q-9.668,10.839-14.843,30.078H245.09v-1.562q1.172-6.641,1.563-6.641,0.293-4.3,2.343-4.3,2.929-8.005,12.11-22.656a2.854,2.854,0,0,0,1.562.781v0.391q-1.758,2.343-2.344,2.343l1.563,1.954q-4.2,10.45-7.422,15.234v0.391l1.953-.391h0.391v0.391a3.267,3.267,0,0,1-1.953,3.125h-0.782v-0.391q0-.78,1.172-0.781a3.087,3.087,0,0,1-.39-1.563h-0.391a9.022,9.022,0,0,0-2.344,3.516v0.39h0.391a0.69,0.69,0,0,0,.781-0.781,3.1,3.1,0,0,1,1.563.391l0.781-.391,0.391,0.781,5.078-4.687,0.39,0.781-0.39,1.953a0.691,0.691,0,0,1,.781.782q-4.3,0-4.3,1.562v0.391h0.391l1.172-.782h1.171l-0.781,1.563,0.391,0.781a14.362,14.362,0,0,1,3.125-.781l0.39,0.781-0.39.781q2.05,1.956,3.125,1.954a3.1,3.1,0,0,1-.391,1.562l0.391,0.781q0,0.783-3.125,2.344l-0.781-.391q0,1.565-1.954,1.563V334.5h1.563q5.859-3.516,5.859-5.859,3.32-9.765,6.25-12.5a26.667,26.667,0,0,1,3.516-6.25q4.4-7.324,5.469-7.422,0.78,0,.781,1.953h0.781a31.613,31.613,0,0,1,5.078-7.031l1.953,0.39q3.516-.681,3.516-1.562l-1.953-.391a10.748,10.748,0,0,0-6.641,2.735,2.785,2.785,0,0,1,1.172-2.344q4-1.267,5.078-2.344l1.563,1.172,0.781-.391a0.345,0.345,0,0,0,.391.391h0.39a4.3,4.3,0,0,1,2.344-1.172,2.844,2.844,0,0,1,3.125-2.734,0.751,0.751,0,0,0-.781-0.781l1.172-1.172a30.241,30.241,0,0,0,7.031-3.907l-0.391-.781a3.016,3.016,0,0,1,1.172.391l7.813-3.516,5.078-2.734q7.325-1.465,9.375-2.735,7.42,0,10.547-2.343a11.981,11.981,0,0,1,1.562.39l3.125-3.515v-1.563q-0.585-6.151-10.156-18.75-7.424-10.155-13.672-10.156-10.353,1.563-28.516,11.719h0Zm-39.843,82.422q1.464-2.733,6.25-2.735a2.331,2.331,0,0,0-2.637-2.637l0.879-1.855V326a0.777,0.777,0,0,0-.879.879L256.613,326q-1.756,0-3.613,7.227l0.879,1.757L253,339.574a6.773,6.773,0,0,1,2.735.879,22.654,22.654,0,0,0-.879-6.347h0Zm5.078,7.519h-1.563v0.781l-1.172-.781q-0.781,0-.781,1.563l0.391,0.781q3.124-.975,3.125-2.344h0Zm2.344-2.051v-0.781l-0.782.391q-2.343-2.246-2.343-3.125h-0.391a3.569,3.569,0,0,1-1.172,1.953h1.563l0.488,0.1h0.1a0.087,0.087,0,0,1,.1.1l-0.1.195q0.195,1.565.2,1.954H261.5a0.691,0.691,0,0,0,.782-0.782h0Zm-9.961,13.282a1.385,1.385,0,0,0-1.465-1.172h-0.391l-0.391-1.563,0.586-1.269-0.586-.684,0.391-.1a3.125,3.125,0,0,0-.683-1.074l0.2-.781-0.586-.684,0.391-.1a3.656,3.656,0,0,0-.586-1.075,3.8,3.8,0,0,0,.39-1.464v-0.2l0.391-.1,0.39,1.855,0.782-.195,0.1-1.172-1.464-1.27-0.2-.781,1.953-.39a3.111,3.111,0,0,0-.683-1.075,3.606,3.606,0,0,0-1.074.586l-0.782-.2q-0.977.293-.976,2.637a2.3,2.3,0,0,0,.683,1.464,0.385,0.385,0,0,0-.293.391,2.241,2.241,0,0,0,.684,1.172l-0.684.488a2.933,2.933,0,0,0,.977.977,3.073,3.073,0,0,0-1.074.683l0.879,1.758L248.7,350.9a0.941,0.941,0,0,0,.782.977h0.195v0.293a0.58,0.58,0,0,1-.586.586,0.712,0.712,0,0,0,.684.586h0.292Zm9.961,10.644a3.85,3.85,0,0,1,.878-1.953l-0.293-.2-1.66,1.074-0.293-.293a3.985,3.985,0,0,1-.293-1.367,1.061,1.061,0,0,1,.293-0.782,6.1,6.1,0,0,1-1.66-2.05,2.938,2.938,0,0,1,1.074-1.856,2.22,2.22,0,0,0-1.269-.683,0.562,0.562,0,0,0-.391.195l-0.1,2.148a3.081,3.081,0,0,0,.39,1.953,2.906,2.906,0,0,1,1.367.782,1.347,1.347,0,0,0-.488.879q0,0.392,2.246,2.441Zm-6.25-8.984q1.464-2.733,6.25-2.735a2.33,2.33,0,0,0-2.637-2.636l0.879-1.856V346.41a0.777,0.777,0,0,0-.879.879l-1.856-.879q-1.758,0-3.613,7.227l0.879,1.758-0.879,4.589a6.765,6.765,0,0,1,2.734.879,22.69,22.69,0,0,0-.878-6.347h0Zm137.7,38.965,1.953,0.39q6.834,0,15.234-11.328,14.063-19.824,14.063-21.875h0.781a66.573,66.573,0,0,0-.781,7.031q0,6.738,3.906,16.8,5.859,10.547,10.547,10.547a47.1,47.1,0,0,0,5.078-.391q3.516,0,17.188-10.546a70.509,70.509,0,0,0,14.453-17.969q7.812-11.719,7.812-13.672-21,20.606-32.422,28.906-4.884,4.3-8.984,4.3a3.087,3.087,0,0,1-1.563-.391q-2.343-5.467-3.125-5.468a0.346,0.346,0,0,1,.391-0.391l-0.391-3.906,0.391-2.735-0.781-.39-0.781.39a0.345,0.345,0,0,0,.39.391l-0.781,1.563-0.781-.391v0.391a7.938,7.938,0,0,1,1.562,2.343,0.75,0.75,0,0,0-.781.782v1.953a40.763,40.763,0,0,1,1.562,4.687,3,3,0,0,0-1.171.391l-2.735-1.563-0.781.391q-1.954-2.344-1.953-3.516-1.466,0-2.735-7.422h0.391a15.04,15.04,0,0,1-1.562-4.3,75.682,75.682,0,0,0,1.953-8.985h0.39v0.391a59.68,59.68,0,0,0-.781,8.2q1.172,0,1.172-2.344h0.391v2.735l1.953-3.516v3.516q3.125-1.854,3.125-3.125h0.39v0.39l-0.39.781,1.172,1.563a0.69,0.69,0,0,1-.782.781l0.391,0.781,0.781-.39q1.562-5.762,4.3-8.594v-0.391q-1.563,0-1.562-1.171a2.993,2.993,0,0,1,.39-1.172l-0.39-.782q2.244-2.731,5.468-10.156,3.124-1.366,3.125-3.515h-0.39l-1.172.781v-0.391q1.072-1.952,1.562-1.953v1.172h0.782q5.076-10.254,5.078-16.406l-0.391-1.953c0.259,0,.391-0.391.391-1.172q-3.907-5.861-5.86-5.86l-0.781.391q-4-.388-4.687-0.391v1.953q-3.908,6.153-3.907,7.032-16.406,20.9-16.406,21.093-16.5,23.732-30.859,39.063l-0.782-.391,0.782-1.562a3.033,3.033,0,0,0-.391-1.172q0.78,0,.781-5.078l-0.781.39q0-1.56,4.3-10.937l-1.172-.781h-0.391l-0.39,1.562a4.177,4.177,0,0,0-2.344,3.516,2.989,2.989,0,0,1-1.172-.391q-1.27,0-3.515,6.641a3.021,3.021,0,0,0-1.172-.391v-0.39a1.667,1.667,0,0,1,1.172-1.172,0.347,0.347,0,0,0-.391-0.391q0-.78,1.172-0.781A5.457,5.457,0,0,0,386.3,372v-1.953q1.561,0,1.562-1.172l-0.39-.781h0.39a0.346,0.346,0,0,0-.39-0.391,4.249,4.249,0,0,1,.781-1.953l-0.781-.39q1.758-5.861,3.125-5.86v1.563a0.345,0.345,0,0,0,.39-0.391l1.172,0.781a3.012,3.012,0,0,1-.39,1.172V363.4l0.781-.39-0.391,1.953h0.782c0-.781.259-1.172,0.781-1.172v1.172H394.5l1.172-3.906h0.391v0.39a3.092,3.092,0,0,0-.391,1.563h0.391q1.56-.975,1.562-1.953a0.752,0.752,0,0,0-.781-0.782l-0.781.391q0-.975,4.3-10.156,2.832-4.784,8.985-13.281a0.346,0.346,0,0,1,.39.39,46.965,46.965,0,0,1,6.641-7.812l-0.391-.782q1.758-.78,1.954-1.562v-3.906q-7.423-10.548-12.891-10.547l-8.594,12.5q-18.358,33.2-18.359,53.906v2.344q1.368,14.454,10.547,14.453a5.53,5.53,0,0,1,5.078-2.734h0Zm-1.953-32.813a4.005,4.005,0,0,0-.391-1.953c0.259,0,.391-0.259.391-0.781h-0.391l-0.781.39,0.39-2.343h0.391a2.985,2.985,0,0,0,.391,1.171q3.71-5.859,4.3-5.859,0,0.2-1.172,3.906l0.39,0.782-2.734,4.687H391.77Zm4.687-5.078V355.2q0.587-1.56,1.172-1.562v0.39a2.86,2.86,0,0,0-.781,1.563h-0.391ZM394.5,359.5v-0.39a3.023,3.023,0,0,0,.391-1.172h0.39v0.39a3,3,0,0,0-.39,1.172H394.5Zm3.906-.781h-0.781v1.172h0.781v-1.172Zm33.985,5.469-0.782-.391a3.1,3.1,0,0,0,.391-1.562,0.69,0.69,0,0,1,.781.781v1.172H432.4Zm-38.282,2.734v-0.391h-0.781a3.012,3.012,0,0,1-.39,1.172v0.391h0.781a3.015,3.015,0,0,1,.39-1.172h0Zm-4.687,1.172a0.751,0.751,0,0,0-.781-0.781v1.562a0.69,0.69,0,0,0,.781-0.781h0Zm1.562,0a1.035,1.035,0,0,0-1.171,1.172,1.669,1.669,0,0,0,1.171-1.172h0Zm43.75,1.172V368.09q-0.585,0-1.171,1.562a0.346,0.346,0,0,1,.39.391,0.69,0.69,0,0,0,.781-0.781h0Zm3.907-.781V368.09q-1.173,0-1.953,3.516h0.781a7.794,7.794,0,0,1,1.172-3.125h0Zm-46.094,3.906a19.442,19.442,0,0,1,.391-2.344h0.39a10.747,10.747,0,0,1-.39,2.344h-0.391Zm42.187,1.953v-0.781h-0.781v1.562a0.69,0.69,0,0,0,.781-0.781h0Zm-44.531,4.3a3.112,3.112,0,0,0-.39-1.563,1.67,1.67,0,0,1,1.171-1.172,3.012,3.012,0,0,1-.39,1.172l0.39,0.782q-0.39,0-.39.781h-0.391Zm-1.953-1.953h0.781q-0.489,2.343-1.172,2.343a19.474,19.474,0,0,1,.391-2.343h0Zm46.484,3.906-0.39-.781a0.75,0.75,0,0,0-.781.781v1.562h0.781a3.1,3.1,0,0,1,.39-1.562h0Zm86.036-78.125h1.171q3.906,0,3.907-3.516h0.39v1.172h0.391l3.906-6.25q0-1.267,1.953-3.125v-1.953q1.269-.1,4.3-8.2a3.033,3.033,0,0,0-1.172-.391,0.972,0.972,0,0,1,.782-1.172q-0.2-3.123-1.172-3.125a0.345,0.345,0,0,1,.39-0.39l-0.39-1.953q-3.029-3.9-12.5-3.907-1.173,0-1.172.782l0.39,1.953q-6.836,6.642-9.375,19.14,0,6.936,7.032,12.11h1.172v-1.172ZM505.93,394.652q9.667-4.393,12.109-8.2,3.124-1.951,3.125-4.687,1.466-.488,10.156-12.891l-0.39-.781a3.734,3.734,0,0,0,2.344-2.344l-0.391-.781q7.42-10.642,7.422-12.891l-0.391-.781a6.745,6.745,0,0,0,1.563-2.344v-0.781a9.23,9.23,0,0,0-3.125,3.906q-11.329,12.891-11.328,13.672-26.173,22.266-33.594,22.266-2.05-.781-4.3-4.3,0-2.344-1.953-2.344l2.344-3.515a3.12,3.12,0,0,1-.782-1.954q-0.781,0-.781,1.954H487.57l-0.781-.391,1.172-1.563v-0.781c-0.522,0-.781-0.39-0.781-1.172a3.371,3.371,0,0,0-1.953.391q-1.563,0-1.563-3.516a0.347,0.347,0,0,1,.391.391,1.761,1.761,0,0,0,1.172-1.563h-0.391l-0.781.391c0-.259-0.391-0.391-1.172-0.391v-1.171q1.758-4.3,2.734-4.3a0.346,0.346,0,0,0-.39-0.391l0.39-.781v-0.391h-0.781q-0.783,0-3.516,8.594l-1.562-.781a14.451,14.451,0,0,0,.781-3.516,147.982,147.982,0,0,1,15.625-31.641h0.781v1.172A149.775,149.775,0,0,0,485.617,359.5a0.69,0.69,0,0,0,.782.781q0.585,0,1.171-1.562a0.749,0.749,0,0,1-.781-0.781h0.391l2.734-5.078,0.781,0.39c0.782,0,1.172-.259,1.172-0.781h1.172q1.562,0,1.563-1.172,1.952-1.172,1.953-2.344h1.172q0.78,0,.781-1.172h-0.781q0-.585,3.125-2.734h0.39a9.236,9.236,0,0,1-1.172,3.125v0.781q2.637-1.073,3.125-2.343v-0.391a3,3,0,0,0-1.171.391h-0.391l0.391-.782q3.123-2.05,3.125-3.906,2.244-.78,4.3-4.3V336.84h-0.781v-0.391h0.391q6.346-7.518,7.422-12.89a10.881,10.881,0,0,0-.782-4.688h0.391q0-5.076-9.375-7.031a0.346,0.346,0,0,1-.391.391,0.346,0.346,0,0,0-.39-0.391h-1.953a21.687,21.687,0,0,1-3.516,5.078q-15.725,21.972-21.094,36.719-6.248,13.966-6.25,24.609v2.344q0,0.2,1.172,4.3,2.344,6.446,11.719,10.156l0.781-.391a49.686,49.686,0,0,1,7.813,1.563h1.172a47.146,47.146,0,0,0,10.156-1.563h0Zm-3.125-59.375v0.782a3.012,3.012,0,0,0-1.172.39,1.036,1.036,0,0,1,1.172-1.172h0Zm-1.563,3.516v-1.172h0.782v1.172h-0.782Zm-1.562,4.688V343.09a3,3,0,0,0,1.172-.391v0.782H499.68Zm-12.11,1.171h0.391v0.391q-0.392,2.344-1.172,2.344Zm5.469,0.782a0.752,0.752,0,0,1,.781-0.782l0.782,0.391a0.69,0.69,0,0,1-.782.781Zm1.953,2.734v-0.781q1.074-1.953,1.563-1.953a20.9,20.9,0,0,0-.781,2.734h-0.782Zm1.563-.781q1.072-1.953,1.562-1.953v0.39q-1.076,2.344-1.562,2.344v-0.781Zm-4.688.39q0.975-1.56,1.953-1.562,0,0.977-1.562,1.562h-0.391Zm-1.172,1.954V349.34a2.994,2.994,0,0,0,1.172-.391h0.391v0.782H490.7Zm2.344,1.953v-1.172a2.867,2.867,0,0,0,1.563-.781v0.39a2.863,2.863,0,0,0-.782,1.563h-0.781Zm1.953,7.812q2.052-4.687,5.469-5.859a0.751,0.751,0,0,0-.781-0.781l-1.172.781h-0.391a3.986,3.986,0,0,0,.391-1.953l1.953,0.39q1.267,0,1.953-1.953a0.344,0.344,0,0,1-.39-0.39l-1.563,1.171-1.172-.781H498.9q0,1.563-1.172,1.563-2.248,6.738-4.3,7.031v1.172h1.562V359.5Zm3.125-9.375a3.468,3.468,0,0,0-1.562.391l0.39,0.781a1.669,1.669,0,0,0,1.172-1.172h0Zm-1.953,3.125v-0.39q-1.563.976-1.562,1.953h0.39q0.586,0,1.172-1.563h0Zm2.735,2.735V355.2a0.97,0.97,0,0,0-1.172.782l0.39,0.781a0.691,0.691,0,0,0,.782-0.781h0Zm-3.125-.391q-2.052,0-3.907,3.906v0.391a12.6,12.6,0,0,0,3.907-4.3h0Zm-5.469,1.172a0.751,0.751,0,0,0-.781-0.781q-1.565.976-1.563,1.562,1.172,0,1.172.781a1.76,1.76,0,0,0,1.172-1.562h0Zm-8.594.39H482.1q0,1.956-.782,1.954Zm-3.125,2.735V359.5a2.984,2.984,0,0,0,.391-1.172h0.39v0.391a3.027,3.027,0,0,0-.39,1.172h-0.391Zm10.938,0-0.782-.391q-0.684,0-1.562,2.344l0.39,0.781q0.977-.195,1.954-2.734h0Zm6.64,2.734a0.751,0.751,0,0,0-.781-0.781v1.172Zm-20.312,5.469q0-.388,1.562-5.469h0.391v0.391a24.263,24.263,0,0,0-1.563,5.078h-0.39Zm3.515-5.078h0.391v0.39q-2.245,7.815-2.734,7.813,0-2.245,2.343-8.2h0Zm15.625,0.39q-1.563.587-1.562,1.172h0.781q0.78,0,.781-1.172h0Zm-1.172,2.344a0.972,0.972,0,0,0-.781-1.172q-0.879,0-1.172,2.344h0.782a1.035,1.035,0,0,1,1.171-1.172h0ZM560.52,397v-0.39l-0.391-.782,1.953,0.391q0-1.954,1.563-1.953,8.2-7.519,8.2-8.985,5.663-7.031,6.25-7.031a28.746,28.746,0,0,1,4.687-7.422,89.79,89.79,0,0,1,6.641-12.5v-0.39h-0.391q-2.442,1.171-14.843,15.234-14.846,13.283-20.313,15.234h-2.734q-4.3,0-4.3-7.031l0.39-3.515a3,3,0,0,1-.39-1.172l0.781-1.172-0.391-.781q1.466-3.906,1.954-3.907a0.346,0.346,0,0,0-.391-0.39q1.465-3.809,2.344-3.907l-0.391-1.953q0.587,0,1.563-1.562a3.033,3.033,0,0,0-.391-1.172q1.465-5.467,1.953-5.469,0-2.929,8.594-6.64,13.476-4.491,16.015-6.25a8.321,8.321,0,0,0-3.906.781l-1.562-.391a7.04,7.04,0,0,0-2.344,1.172,2.984,2.984,0,0,1-1.172-.391,70.4,70.4,0,0,1-10.547,1.172v-1.172q0.781-.78,1.172-5.078l-1.172.782h-0.39a42.984,42.984,0,0,0,5.468-10.547v-0.391l-0.39-.781a17.6,17.6,0,0,0,2.343-3.125q3.319-8.4,7.813-11.719V313.4a0.346,0.346,0,0,0-.391.391h-0.39q1.072-1.953,1.562-1.953a0.346,0.346,0,0,0-.39-0.391,1.436,1.436,0,0,1,1.562-1.562q3.9-4.491,3.906-5.469,7.032-5.663,7.032-8.2l-2.735-4.688a54.454,54.454,0,0,0-6.64-4.3l-6.641,5.859Q552.022,317.9,541.77,337.231a3.085,3.085,0,0,0,.39,1.562v0.391a0.345,0.345,0,0,1-.39-0.391q-0.879.391-3.125,5.469v0.781l0.781-.391v0.782h-0.391l-0.781-.391a0.346,0.346,0,0,1-.391.391,12.82,12.82,0,0,1-3.125-.391,0.345,0.345,0,0,1-.39.391q-3.516-.488-3.516-1.172a6.02,6.02,0,0,0-2.344.781q-0.878,0-4.3-5.469a7.748,7.748,0,0,0-2.735,3.516v1.562a0.691,0.691,0,0,0,.781.782,3.083,3.083,0,0,1-.39,1.562q0.879,4.3,1.562,4.3,0,4.2,7.032,7.422l0.781-.391,1.953,0.391a73.011,73.011,0,0,0-3.125,22.266q0,10.45,5.859,12.5a9,9,0,0,0,3.125-.782q0.587,1.269,3.516,2.735l1.953-.391q5.955,3.124,10.156,3.125a0.345,0.345,0,0,1,.391-0.391c0,0.26.259,0.391,0.781,0.391A22.446,22.446,0,0,1,560.52,397h0Zm-7.032-74.609h0.782q-0.586,1.563-1.172,1.562Zm-3.125,5.469a3.006,3.006,0,0,0,.391-1.172h0.781a3.476,3.476,0,0,1-.39,1.562Zm2.344,0.39v-0.39a3.006,3.006,0,0,0,.391-1.172h0.39v0.39a3.015,3.015,0,0,0-.39,1.172h-0.391Zm-3.125.781h0.781q0,1.173-.781,1.172v-1.172Zm-8.2,16.8c-0.522,0-.781-0.39-0.781-1.172q0.683-1.56,1.562-1.562A5.208,5.208,0,0,1,544.9,338.4q0-3.318,3.906-7.031h0.391l-1.563,3.125h1.563q-5.764,11.329-6.25,11.328h-1.563Zm8.2-12.5a11.73,11.73,0,0,1,.391-1.953h0.781v0.391a2.857,2.857,0,0,0-.781,1.562h-0.391Zm-1.562,3.125a0.752,0.752,0,0,0-.782-0.781q-0.585,0-1.953,2.734h0.391Zm-1.563,7.422h0.391q0,1.563-.781,1.563Zm-12.109,18.36a3.184,3.184,0,0,1,3.125-3.516,3,3,0,0,0,.39,1.172q0,1.171-.781,1.172a3.9,3.9,0,0,0,.781,1.172l-3.125,1.562Zm19.531-3.907c-0.522,0-.781.391-0.781,1.172h0.781v-1.172Zm-14.844,3.907a19.442,19.442,0,0,1,.391-2.344H540.6l-0.391,2.734a3.027,3.027,0,0,0-1.172-.39h0Zm-4.687,3.515a3.086,3.086,0,0,0-.391-1.562v-0.391a0.69,0.69,0,0,1,.781.781l0.782-.39h0.39l-0.39,1.562h-1.172Zm-0.781,2.735a3,3,0,0,0-.391-1.172c0.522,0,.781-0.391.781-1.172a3,3,0,0,0,1.172.39,3.577,3.577,0,0,0-1.172,1.954h-0.39Zm-0.782,10.156v-1.953q0-1.173.782-1.172a12.106,12.106,0,0,0-.391,3.125h-0.391Zm3.907,9.765a0.691,0.691,0,0,1,.781.782v0.781c-0.522,0-.781-0.52-0.781-1.563h0Zm102.148-41.8q-0.783,0-1.172,2.343v0.391q1.171-.292,1.172-2.734h0Zm-51.953,24.609h-0.781v1.953h0.781v-1.953Zm51.953-5.078-0.781.39,0.39,1.563h0.782a3.974,3.974,0,0,1-.391-1.953h0Zm-37.891-.781-0.39-.782c0.259,0,.39-0.259.39-0.781l-1.171.781a0.345,0.345,0,0,0,.39.391,3.017,3.017,0,0,1-.39,1.172v0.781q0.585,0,1.171-1.562h0Zm38.282-6.641h-0.782a19.339,19.339,0,0,0-.39,2.344h1.172v-2.344Zm-1.953-4.3v-2.344H636.5a12.9,12.9,0,0,1-.39,3.125h0.39a0.69,0.69,0,0,0,.782-0.781h0Zm-28.516-2.344a1.763,1.763,0,0,0-1.172,1.563,1.763,1.763,0,0,0,1.172-1.563h0Zm42.187-10.547h0.782l-0.1.782-0.684.39v-1.172ZM587.18,351.684a3.928,3.928,0,0,0,.781-1.172h0.391a3.919,3.919,0,0,1-.782,1.172h-0.39Zm66.5,33.984v-0.391h1.953v0.391h-1.953Zm-3.516-4.687q1.659,0,3.906,3.515l-1.953.391q0-.682-1.953-3.906h0Zm-60.547,0a3.027,3.027,0,0,0-.39-1.172h0.781v1.172h-0.391Zm-0.39-3.125v-1.172h0.39a2.989,2.989,0,0,0,.391,1.172v0.39Zm4.3-.391a13.862,13.862,0,0,0,.39-3.516h0.391v3.907Zm3.125-3.125v-0.781a5.56,5.56,0,0,0,.781-3.125h0.781l-1.172,3.906h-0.39Zm-7.422-5.469v-2.344h0.781l-0.391,2.344h-0.39Zm7.812-5.859h0.391v0.781q-2.541,8.986-3.125,8.984,0-.975,2.734-9.765h0Zm-5.078,1.953v-0.391q1.171-3.709,1.172-3.906h0.391a39.926,39.926,0,0,1-1.172,4.3h-0.391Zm54.3-3.516v-0.781a4.256,4.256,0,0,0,.781-1.953h0.391a16.374,16.374,0,0,1-.781,2.734h-0.391Zm-46.875-3.515h0.391v0.39q-1.27,3.907-1.954,3.907a26.385,26.385,0,0,1,1.563-4.3h0Zm-7.422,1.953,0.391-2.344h0.39v2.344h-0.781Zm49.609-1.953v-0.391a3,3,0,0,0,1.172-.391h0.391v1.172Zm-55.859,6.64a3,3,0,0,0-.391-1.172,19.413,19.413,0,0,0,1.954-6.25h0.39v0.391a53,53,0,0,0-1.562,7.031h-0.391Zm17.969-8.984a1.669,1.669,0,0,1,1.172-1.172q0,1.172-.782,1.172h-0.39Zm-3.125-.391q1.172,0,1.172-1.953h0.781q-0.978,2.541-1.953,2.735V355.2Zm-11.719-1.953h0.391v0.391q-0.783,3.126-1.563,3.125Zm6.25,3.125q1.758-3.808,2.344-3.906-1.466,4.688-2.344,4.687v-0.781Zm48.047-.781a3,3,0,0,1,.391-1.172l-0.391-.781a2.488,2.488,0,0,0,1.172-2.344h0.39q0,4.3-1.171,4.3h-0.391Zm-39.844-4.3q0,1.172-.781,1.172a0.971,0.971,0,0,1,.781-1.172h0Zm100.391,0.391a3.928,3.928,0,0,0,.781-1.172h0.391a3.919,3.919,0,0,1-.782,1.172h-0.39Zm-99.219-3.516h0.391v0.391q-0.49,1.954-1.172,1.953ZM594.7,350.9v-0.39a22.627,22.627,0,0,0,1.954-3.906h0.39V347L595.09,350.9H594.7Zm52.735-1.171V349.34q1.952-2.05,1.953-3.125h0.391v0.391a7.794,7.794,0,0,0-1.172,3.125h-1.172Zm-39.063-1.954a3.556,3.556,0,0,0,1.172-1.953h0.391v0.391q-0.586,1.563-1.172,1.562h-0.391Zm-18.75,4.688v-0.391l2.735-6.25h0.39v0.391a48.342,48.342,0,0,0-2.734,6.25h-0.391Zm45.313-1.953v-0.391q1.072-5.859,1.953-5.859l-1.563,6.25h-0.39ZM594.7,353.246q4.4-8.788,5.86-8.984,0,0.684-5.86,9.375v-0.391ZM636.887,342.7q1.074-1.951,1.562-1.953a2.5,2.5,0,0,1-1.562,2.344V342.7Zm-48.828,36.719v-1.953h-0.781v0.781h-0.391a33.268,33.268,0,0,1-.391-3.515h-0.781q0-14.942,12.5-34.766h0.391v0.391l-1.172,1.953q1.268,0,2.344-2.735h0.39l-6.25,10.157q-2.247,0-7.422,20.312v0.391h0.782q0-4.982,6.64-18.75h0.391v0.39a63.078,63.078,0,0,0-6.25,17.578h0.39l0.782-.39q-0.2,5.079-1.172,5.078v-1.563h-0.781v2.735q1.171,0,1.171,1.953v1.953h-0.39Zm51.953-40.234q0,1.171-.781,1.172a0.97,0.97,0,0,1,.781-1.172h0Zm4.687,42.187q-1.368-3.516-3.125-3.515v-0.391a3,3,0,0,0,1.172-.391,4.29,4.29,0,0,0-1.172-2.343v-1.954h-0.781a12.8,12.8,0,0,0,.391,3.125q-1.075,0-1.953-5.859h-0.782a0.345,0.345,0,0,0,.391.391,0.345,0.345,0,0,1-.391.39,6.525,6.525,0,0,0,.782,3.125v0.391H638.84a11.357,11.357,0,0,0-1.562-3.906h0.39a11.634,11.634,0,0,0-1.172-3.907h0.391q0-5.076-1.172-5.078l0.781-1.172a0.752,0.752,0,0,0-.781-0.781,6.232,6.232,0,0,0,1.172-3.125h-0.781a3.018,3.018,0,0,1-.391,1.172l0.391,0.781h-0.782l0.782-5.859a0.345,0.345,0,0,1-.391-0.391,3.915,3.915,0,0,0,.781-1.172l-0.39-.781q0.681,0,1.172-1.953l-0.391-.781a42.711,42.711,0,0,1,1.953-5.86l1.172,0.782q2.439-1.661,4.3-6.641h0.781q-0.684,2.344-1.172,2.344-1.172,5.272-2.344,7.031l0.391,0.781h-0.391L642.356,347v0.781q-2.344,0-2.735,3.516a1.382,1.382,0,0,0,1.563,1.563V355.2l-0.391,1.953a0.347,0.347,0,0,1,.391.391,0.75,0.75,0,0,0-.781.781v1.953a2.635,2.635,0,0,1,1.562,1.172h0.391v-0.781h0.39q1.269,13.674,2.735,13.672a0.346,0.346,0,0,1-.391.391q2.44,3.126,2.734,3.125a3.085,3.085,0,0,0-.39,1.562h-0.391v-0.781h-0.781v0.39a1.669,1.669,0,0,0,1.172,1.172l0.781-.39a3.006,3.006,0,0,1-.391,1.172c0,0.26.26,0.39,0.782,0.39a0.346,0.346,0,0,1-.391.391l1.172,1.953v0.391q-3.808-2.344-4.688-2.735h0Zm-2.343-50.39V330.59a3.012,3.012,0,0,0,.39-1.172h0.782a2.863,2.863,0,0,0-.782,1.563h-0.39Zm-44.922,45.7,0.781-1.172-0.391-.781a25.424,25.424,0,0,0,1.563-3.907L599,370.043v-0.391h0.391v0.782h0.391c0-.782.259-1.172,0.781-1.172q0-.781-1.172-0.781-0.586,0-1.172,1.562l-0.781-.391a12.951,12.951,0,0,1,1.953-3.515,3.478,3.478,0,0,0-.391-1.563q2.441-3.9,2.735-3.906a23.33,23.33,0,0,0-.782,3.125,14.745,14.745,0,0,1,3.125-3.516v-0.39h-0.39l-0.781.39v-0.39l-0.782.39h-0.39V359.5a3.629,3.629,0,0,0,1.172-2.344h0.39v0.782h0.391a3.007,3.007,0,0,0,1.953-2.735l0.781,0.391v-0.781h-0.781q1.562-1.953,1.562-2.735,3.516-2.246,4.3-3.906v-0.391a1.5,1.5,0,0,0-1.562,1.563h-0.781a3.038,3.038,0,0,0-.391-1.172q1.758,0,8.594-8.2v-0.391h-0.782v-0.39q3.32,0,4.688-3.516l5.078-3.516h-0.781v-0.39a2.865,2.865,0,0,0,1.562-.781v0.781h0.391q6.834-5.469,11.719-5.469-32.52,41.212-41.8,50.781v-0.39Zm69.531,18.75,1.953,0.39q0-.489,5.469-3.125,0-.681,13.672-12.109,6.834-10.84,10.156-14.453l-0.391-.781,7.422-11.329v-0.39h-0.781a2.861,2.861,0,0,1-1.562.781l4.3-5.469v-0.39l-1.171.781v-0.781q0.585,0,4.687-4.688a45.962,45.962,0,0,1,5.078-7.031v-0.391l-16.015,16.407q-28.712,32.423-41.407,32.421-1.368,0-4.3-2.343-4.884-2.93-7.031-13.282v-0.781a0.751,0.751,0,0,1,.781-0.781q-0.684-1.561-1.562-1.563a4.535,4.535,0,0,1,.781-2.343l-0.39-.782q0.487,0,1.953-5.859h-0.782a0.346,0.346,0,0,1,.391-0.391,19.245,19.245,0,0,1,4.3-7.421h-0.391a1.67,1.67,0,0,0-1.172,1.171l-0.781-.39-2.344,4.3,0.391,0.781a7.875,7.875,0,0,1-2.344,1.562l-0.39-.781q0-.487,2.343-2.734v-0.781h-0.781q4.688-6.641,4.688-10.45,0.975-.389,5.078-5.957,1.56-.585,4.3-5.468,4.98-8.2,8.593-11.719,3.906-5.567,3.907-8.985a34.849,34.849,0,0,0-1.563-5.078,23.821,23.821,0,0,0-10.156-7.812h-1.172Q648.606,310.475,642.746,322q-12.3-12.5-17.968-12.5-7.716,0-21.875,14.453-21.486,27.246-21.485,44.532v2.343q0,9.961,8.985,16.407,7.909,6.642,13.671,6.64,4.3-3.9,5.079-3.906l-0.391-.781q0.488,0,7.422-7.813l-0.391-.781-0.781.391V380.59q3.71-4.882,8.984-12.891l-0.781-.39,4.3-5.86h-0.391a2.287,2.287,0,0,0-1.562,1.953h-0.391v-0.39L627.9,359.5l-0.391-.781q3.516-3.417,3.516-3.906a3.491,3.491,0,0,0-.391-1.563c0.259,0,.391-0.259.391-0.781h0.781a0.346,0.346,0,0,1-.391.391l0.391,1.562a3.1,3.1,0,0,1-.391,1.563q1.561,10.45,3.125,14.843,7.226,17.383,23.047,24.61l0.781-.391a25.9,25.9,0,0,0,6.25,1.563q0-.391,2.344-1.172h0Zm42.188-49.219a1.669,1.669,0,0,0-1.172,1.172h0.39q0.782,0,.782-1.172h0Zm-57.813,1.562q1.561-.681,5.078-7.031v-0.781a3.122,3.122,0,0,1-1.953.781,0.345,0.345,0,0,0,.391.391,7.867,7.867,0,0,0-1.563,2.344l0.391,0.781q-3.127,2.834-3.125,4.3h0.781v-0.782Zm5.859-10.156q-1.171,0-1.171,1.563a1.76,1.76,0,0,0,1.171-1.563h0Zm43.555,56.641h1.953l0.781-.391q2.245-3.9,3.125-3.906a3.032,3.032,0,0,0-.39-1.172l2.344-3.125a0.346,0.346,0,0,1,.39.391,5.638,5.638,0,0,0,2.735-1.172l-0.782-1.172q0-.682,2.344-5.469,0.879,0,2.344-1.953,4.688-9.082,6.25-10.156,1.072-2.733,2.344-2.735a0.346,0.346,0,0,0-.391-0.39q1.953-2.733,2.344-2.735a42,42,0,0,1,4.3-6.64q3.123-2.637,3.125-5.078a0.346,0.346,0,0,1,.39.39,35.573,35.573,0,0,0,5.86-8.984,0.346,0.346,0,0,1,.39.391q8.592-9.765,9.375-9.766,5.663,17.97,12.5,17.969c1.041-.2,1.563-0.455,1.563-0.782q9.96,0,17.578-8.593l-0.391-.782q0.879,0,5.86-6.25v-0.39q-14.062,9.375-21.485,9.375a12.808,12.808,0,0,1-3.125-.391q-0.783,0-1.562-3.125l0.39-1.953q-0.879,0-1.172-5.078Q754.562,322,748.41,322q-7.129,0-16.015,11.328H732q0.292-1.951,1.172-1.953a3.021,3.021,0,0,0-.391-1.172q3.516-5.567,6.25-15.625-0.976-1.56-1.562-1.562l0.39-1.953q-0.977-2.44-10.156-6.641-1.171,0-1.172.879t-9.375,15.918a265.823,265.823,0,0,0-19.14,39.844,0.345,0.345,0,0,1,.39.39l-1.953,3.125a0.691,0.691,0,0,0,.781.782q0.686-.879,3.516-8.2,7.032-16.014,10.938-22.656,7.226-13.671,8.984-13.672,0,0.879-3.516,7.032v0.781q2.733-2.44,2.735-3.125h0.39v0.39a441.446,441.446,0,0,0-19.922,40.625h0.391a26.417,26.417,0,0,0-2.734,7.422l0.39,0.782q-0.585,0-1.172,1.562l0.391,1.563h-0.781v0.39l0.39,0.781q-0.389,0-.781,1.954-2.343-1.269-2.344-2.735,0.586-4.2,1.172-5.078l-0.39-.781q-0.781,0-1.953,5.859a3.015,3.015,0,0,1,.39,1.172,3.1,3.1,0,0,1-.39,1.563l0.781,3.125a0.346,0.346,0,0,0-.391.39q0,3.615,3.516,6.25,2.442,4.3,3.125,4.3h0.781v-0.781Zm16.016-63.281-0.391-.782a1.673,1.673,0,0,0-1.172,1.172v1.563q1.562-.975,1.563-1.953h0Zm-2.344,3.125c-0.522,0-.781.39-0.781,1.171h0.781v-1.171Zm15.625,1.171q0-.78,1.172-0.781a0.69,0.69,0,0,1-.781.781h-0.391Zm-16.8,2.344-0.391-.781q-0.782,0-.781,1.172h1.172v-0.391Zm-0.781,8.2q0.488-1.951,1.172-1.953l-0.391,1.953h-0.781Zm-1.563,3.125v-1.172h0.782a3,3,0,0,0-.391,1.172H710.91ZM711.3,350.9a3.012,3.012,0,0,0-.391-1.171l0.782-.391h0.39l-0.39,1.562H711.3Zm-8.984,17.969a6.6,6.6,0,0,1,1.171-3.906l0.782,0.391q0.78,0,.781-1.172a3.464,3.464,0,0,1-1.563.39v-0.781l3.125-5.078a0.346,0.346,0,0,0-.39-0.391L707,355.981q2.733-1.953,2.734-2.735h0.391q0,2.736-2.344,2.735v1.171h0.782v0.782l-1.172.39-0.782,1.172H707v2.344l1.172-.781h0.391v1.172a3.107,3.107,0,0,0-1.563.39l-0.391-1.465-0.1.684,0.1,0.391-0.781-.391-1.172.781c0,0.522.391,0.781,1.172,0.781v0.391h-0.781a0.345,0.345,0,0,0,.391.391,3.023,3.023,0,0,1-.391,1.172v0.39h1.172l0.39-2.734H707l0.781,0.39q-1.758,4.688-3.125,4.688a3.469,3.469,0,0,0,.391-1.563l-2.344,2.344h-0.39Zm8.593-14.453a3,3,0,0,0,.391-1.172l0.781,0.391a0.69,0.69,0,0,1-.781.781H710.91Zm0.782,3.125a1.67,1.67,0,0,1,1.171-1.172,0.346,0.346,0,0,0-.39-0.39,2.868,2.868,0,0,0,.781-1.563h0.391v0.391l-0.391.781h0.391a4.541,4.541,0,0,1-.782,2.344,3.012,3.012,0,0,0-1.171-.391h0Zm-3.516,2.734q0.587-1.56,1.172-1.562a0.347,0.347,0,0,0-.391-0.391l1.172-3.125a3.494,3.494,0,0,1,1.563.391,0.346,0.346,0,0,1-.391.391l0.391,0.781H711.3q-2.149,3.516-2.734,3.515h-0.391Zm2.734-1.562,0.391-.781a2.978,2.978,0,0,0,1.172.39l-0.391.782a3.016,3.016,0,0,0-1.172-.391h0Zm-13.672,8.2v-1.172q-1.268,0-2.343,3.516l0.39,0.781c-0.259,0-.39.391-0.39,1.172h0.781a8.708,8.708,0,0,1,1.562-4.3h0Zm6.641,3.516v-0.391a1.671,1.671,0,0,1,1.172-1.172h0.781v0.391a1.669,1.669,0,0,1-1.172,1.172h-0.781Zm-4.3,7.031a3.015,3.015,0,0,0-.39-1.172c0.26,0,.39-0.259.39-0.781H698.8v-0.781a0.345,0.345,0,0,1,.391.39l2.343-4.3a19.826,19.826,0,0,0-.39,2.344,4,4,0,0,1,1.953-.391q0-.78-1.172-0.781l0.391-.781,0.781,0.391h1.172v-0.782h0.39v0.391l-0.39.781a0.691,0.691,0,0,1,.781.781H704.27v0.391l0.39,0.781q-1.954,1.27-1.953,2.344-0.78,0-.781-1.172h-1.563c0,0.781-.259,1.172-0.781,1.172a3.928,3.928,0,0,0,.781,1.172h-0.781Zm5.469-2.734v-1.563h0.781v0.781l0.781-.39q0,1.171-.781,1.172h-0.781Zm-2.344,3.906h-0.39l-0.782.39v-1.171a0.345,0.345,0,0,1,.391.39l1.172-.781h0.39v0.781h0.391v-0.781h0.781v0.781a4.727,4.727,0,0,0-1.953,1.172v-0.781Zm-2.344,2.344a2.857,2.857,0,0,0,.782-1.563h0.39a19.275,19.275,0,0,1-.39,2.344,0.752,0.752,0,0,1-.782-0.781h0ZM353.2,554.027h-2.343q-0.879,0-1.172,3.907l0.39,0.781-1.562,4.687q0,11.524,4.3,13.672h0.39l0.782-.39q0,0.977,2.734,1.562a1.036,1.036,0,0,0,1.172-1.172h3.125a1.669,1.669,0,0,0,1.172-1.172l0.781,0.391,0.781-.391-0.39-.781v-0.39h0.781v0.781h1.172q0.78,0,.781-1.172a199.152,199.152,0,0,0,19.531-5.469q3.516,0,3.516,1.172a42.4,42.4,0,0,1,7.812-2.734q0.294,0,1.172,1.953a95.611,95.611,0,0,1,12.891-2.344v-0.781h-1.172a3.081,3.081,0,0,1-1.562-.391,9.734,9.734,0,0,1-4.3.781h-1.563l-1.953-.39a0.345,0.345,0,0,1-.391.39v-0.39q0-1.171,5.079-1.172l1.953,0.391,0.39-.782a3.033,3.033,0,0,1,1.172.391,20.614,20.614,0,0,1,3.516-.391l1.172,0.782h0.39v-0.782h-0.781v-0.39a3.092,3.092,0,0,0,1.563-.391l0.781,0.391,2.344-.391h0.39a3.012,3.012,0,0,1-.39,1.172v0.391h6.64a0.752,0.752,0,0,0-.781-0.782l-0.781.391-0.391-.781v-0.391a17.8,17.8,0,0,1,4.3,1.172l2.344-.391h0.781l2.734,0.391a0.346,0.346,0,0,1,.391-0.391v0.391q3.125-.389,3.125-1.172v-0.781h-1.172a0.75,0.75,0,0,1,.781-0.781h0.391v0.39h1.562v0.391l-0.39.781,0.781,0.391q0.78,0,.781-1.172a0.346,0.346,0,0,1,.391.39,11.574,11.574,0,0,0,1.562-.39v-0.391a3.392,3.392,0,0,1-3.125-1.953h2.344l1.953,0.391a0.346,0.346,0,0,1,.391-0.391q0.389,0,1.172,1.563a4.25,4.25,0,0,0,1.953-.782h0.781l-0.39.782v0.781a0.689,0.689,0,0,0,.781.781h0.39v-2.344a3.089,3.089,0,0,0,1.563-.39,4.3,4.3,0,0,0,2.344,1.172v0.39q-2.736,1.37-2.735,1.953-5.567.783-6.64,1.953a0.69,0.69,0,0,0,.781.782,1.673,1.673,0,0,0,1.172-1.172l1.953,0.39h0.391l0.781-.39a0.344,0.344,0,0,0,.39.39h0.782a0.69,0.69,0,0,0,.781-0.781l0.781,0.391h0.391l0.781-.391a0.69,0.69,0,0,0,.781.781,0.345,0.345,0,0,1-.39.391,1.669,1.669,0,0,0,1.172,1.172l-0.391.781q0.195,0.783,1.953,1.563,1.562,0,1.563-1.172,1.952,0.293,1.953,1.172H455.93v0.39a0.69,0.69,0,0,0,.781.782l1.172-.782,0.781,0.391a1.669,1.669,0,0,1-1.172,1.172,16.316,16.316,0,0,0,.782,3.125q0,2.442-5.079,7.422-23.243,15.821-63.671,39.843-12.209-2.732-14.844-2.734-8.6-1.562-10.547-4.687H362.57q-4.3,5.469-4.3,8.2l0.39,0.781a3.085,3.085,0,0,0-.39,1.562,1.668,1.668,0,0,0,1.171,1.172l0.782-.39,0.39,0.781q15.235,3.42,15.235,4.3-10.06,7.716-11.328,8.2a54.5,54.5,0,0,1-9.766,8.2q-1.27,2.345-1.953,2.344-18.947,18.75-20.313,27.344a54.939,54.939,0,0,1,.782,8.2v0.781q5.662,6.25,10.546,6.25l-0.39.781v0.781q6.249,0.781,6.25,1.954a36.836,36.836,0,0,0,6.25-1.172,3.015,3.015,0,0,0,.39,1.172q0-1.758,10.157-3.516h1.562V692.7l-0.39-.781h0.781V692.7h0.39l0.782-.39v0.39a3.032,3.032,0,0,0,1.172-.39l0.781,0.39q1.561-.585,1.562-1.172h-1.562v-0.39h1.172a3.981,3.981,0,0,1,1.172.781h0.781a27.834,27.834,0,0,0,4.3-1.172l-0.391-.781q0-.78,4.3-1.953l1.562,0.781a41.468,41.468,0,0,1,6.641-1.953v-1.563a4.39,4.39,0,0,0-2.344.391h-0.39v-0.391a4.249,4.249,0,0,0,1.953-.781,3.1,3.1,0,0,1,1.562.391q10.254-2.344,10.547-2.344a0.346,0.346,0,0,0-.39-0.391v-0.781h0.39v0.391a13.513,13.513,0,0,0,4.688-1.172h0.39v1.172l0.782-.391a0.346,0.346,0,0,0-.391-0.39q0.292-1.173,2.734-1.954a2.989,2.989,0,0,0,1.172.391v0.391a5.843,5.843,0,0,1-2.734.781v0.781h1.562a10.336,10.336,0,0,0,1.953-1.562l-0.39-.782,3.515-.781h1.172v-0.781q5.957-1.172,7.422-1.953l0.781,0.39q6.641-.879,6.641-2.734a0.346,0.346,0,0,1,.391.391,21.748,21.748,0,0,1,3.515-1.172v0.39a33.711,33.711,0,0,0,7.032-1.171v-0.391l-0.391-.781a3.393,3.393,0,0,0,2.344-.782h0.39q0,1.564.782,1.563l0.781-.391-0.391-.781v-0.391h3.906l1.954-.39a0.344,0.344,0,0,0,.39.39,3.107,3.107,0,0,1,1.563-.39H457.1l0.781-.391v0.391a0.69,0.69,0,0,0,.781-0.781,0.346,0.346,0,0,1,.391.39,3.015,3.015,0,0,0,1.172-.39,3.106,3.106,0,0,1,1.562.39,29.161,29.161,0,0,1,4.3-.781,0.345,0.345,0,0,0,.391.391h0.39V667.7l-1.953-.39h-9.765l-1.954-.391q0,0.391-1.171.391h-6.641l-1.953.39a0.346,0.346,0,0,0-.391-0.39l-4.687.781a0.347,0.347,0,0,0-.391-0.391,3.1,3.1,0,0,0-1.562.391l-0.782-.391a14.3,14.3,0,0,1-3.125.782l-0.781-.391-1.953.391-0.781-.391-3.125.781v-0.39q-9.766.976-12.5,1.953a2.984,2.984,0,0,1-1.172-.391,47.547,47.547,0,0,0-8.594,1.563l-0.781-.391q-3.126.391-3.125,1.172a2.984,2.984,0,0,1-1.172-.391,36.995,36.995,0,0,0-9.375,1.172l-0.781-.391-3.907,1.172v-0.39q-24.414,3.515-36.328,6.25v-0.782A10,10,0,0,1,353.2,675.9a4.544,4.544,0,0,0-.781-2.343q6.738-7.911,9.375-8.985a0.345,0.345,0,0,0,.391.391h0.781a3.021,3.021,0,0,0-.391-1.172q2.733-2.245,2.735-2.734l1.953,0.39a1.669,1.669,0,0,0,1.172-1.172v-0.39h-0.781V659.5h0.39a3.016,3.016,0,0,1,1.172.391l1.953-1.953H369.6v-0.391q0-1.268,5.859-2.734a18.353,18.353,0,0,1,4.3-2.344l-1.172-1.563v-0.39l2.734,0.39v-0.39l-0.39-.781H382.1a3.958,3.958,0,0,1,1.172.781,0.69,0.69,0,0,0,.781-0.781V649.34l-0.391-.781a4.541,4.541,0,0,1,2.344-.782q0-.78-1.563-0.781,0-.879,3.907-2.734a3.08,3.08,0,0,0,1.562.39h0.391q2.343-1.952,3.125-1.953v-0.39q0-.781-1.563-0.782l0.391-.781a3.021,3.021,0,0,1,1.172.391q1.171,0,1.172-.781H393.82v-0.391h0.391l0.781,0.391q5.469-1.466,5.469-2.735a18.678,18.678,0,0,1,11.328-3.906,0.345,0.345,0,0,0,.391.391q0-.879,4.3-1.172a2.978,2.978,0,0,0,1.172.39q2.343-.388,2.343-1.172l-0.39-.781q0.488,0,3.906.391a29.5,29.5,0,0,0,8.984-1.172q0-.78-16.015-3.125a4,4,0,0,0,.39-1.953h1.172a4.545,4.545,0,0,0,2.344-.781,0.345,0.345,0,0,0,.391.39h0.39V624.34a2.989,2.989,0,0,1-1.172-.391l3.907-2.343q3.318-.975,4.3-2.344,0.879,0,6.25-3.906,8.594-5.662,11.329-7.032,2.051-2.439,8.984-7.422,9.179-6.444,14.844-8.2,0.194-2.733,2.343-2.734a0.346,0.346,0,0,0-.39-0.391l1.172-1.953-0.391-.781q1.562,0,1.563-2.734l-0.391-.782,0.391-.781-0.391-.781H473.9q0-4.1-2.735-12.5-10.743-24.219-48.437-24.219a0.346,0.346,0,0,1-.391.391v-0.391a277.773,277.773,0,0,0-69.141,8.984h0Zm87.11-.781q0,0.684-2.344,1.172,0,0.783,3.125.781l-0.391.782q-6.25-.781-6.25-1.954l1.954,0.391a8.618,8.618,0,0,1,3.906-1.172h0Zm8.594,0,1.953,0.391-0.391.781a4.268,4.268,0,0,0-1.953-.781v-0.391H448.9Zm-1.172,1.172H448.9v1.563a14.458,14.458,0,0,1-3.516-.782v-0.39l0.391-.782Zm7.031,1.563a7.849,7.849,0,0,0,2.344,1.562v0.391q-3.127-.586-3.125-1.563v-0.39h0.781Zm-22.266.39a19.685,19.685,0,0,0,3.125.391v0.781a14.4,14.4,0,0,0-3.515-.781v-0.391h0.39Zm7.813,0.781q2.929,0,3.125,1.563a3,3,0,0,0-1.172.391q0-.39-1.172-0.782a3.086,3.086,0,0,1-1.562.391v-0.781a0.751,0.751,0,0,1,.781-0.782h0Zm4.687,1.563a19.685,19.685,0,0,0,3.125.391v0.39a3.093,3.093,0,0,0-1.562.391q0-.781-1.953-0.781v-0.391h0.39Zm8.2,1.953v0.391h-1.171q-1.173,0-1.172-.782Zm-18.359,0h0.391a1.036,1.036,0,0,1-1.172,1.172v0.391l0.39,0.781h-0.781l-2.344-.391-0.781.391q-0.489,0-3.906-.391l-3.516.391-2.343-.391v-0.39a3,3,0,0,0,1.171-.391l2.344,0.391h0.391l0.781-.391v0.391a14.4,14.4,0,0,0,3.906-.782q0,0.783,2.735.782h0.39V561.84l-0.39-.781a11.451,11.451,0,0,0,2.734-.391h0Zm-17.578.781h0.781a1.667,1.667,0,0,1-1.172,1.172h-0.39v-0.39a0.751,0.751,0,0,1,.781-0.782h0Zm3.125,0.391v0.781h-2.344v-0.39q1.172,0,1.172-.782a2.984,2.984,0,0,0,1.172.391h0Zm-10.547.391,0.781-.391h1.563a0.691,0.691,0,0,1,.781.781l0.781-.39h0.391l1.953,0.39v0.391a163.759,163.759,0,0,0-17.187,1.562l-0.391-.781a44.284,44.284,0,0,0,8.2-1.562,3.1,3.1,0,0,0,1.563.39h0.39a0.69,0.69,0,0,0,.781-0.781,0.346,0.346,0,0,1,.391.391h0Zm28.516,2.734,0.39,0.781a4.5,4.5,0,0,0,2.735-1.172h2.734v-0.39a0.752,0.752,0,0,0-.781-0.782h-1.563a6.237,6.237,0,0,0-3.515,1.563h0Zm12.89-.781v0.781H450.07v-1.172a2.989,2.989,0,0,0,1.172.391h0Zm-22.265,1.953v0.39a3.038,3.038,0,0,1,1.172.391l0.781-.391,1.562,0.391v-1.172l-2.734-.39a0.749,0.749,0,0,0-.781.781h0Zm-17.578.781h2.734v-0.781H412.18a0.75,0.75,0,0,0-.781.781h0Zm25,0.781,1.562-.39v-0.782H436.4V567.7Zm3.125-.39H440.7v-0.782h-1.171v0.782Zm16.015,1.172-1.953-.391a3,3,0,0,1-1.172.391V568.09l0.781-1.172a2.506,2.506,0,0,1,2.344,1.563h0Zm-7.422-.391v0.781l1.953-.39V567.7ZM415.7,625.9h0.391v0.391a0.69,0.69,0,0,1-.781.781h-1.563v-0.39a4.246,4.246,0,0,0,1.953-.782h0Zm52.344,42.188h1.172v-0.781h-1.172v0.781Zm-29.3,2.734v0.391H436.4v-0.391h2.343Zm-46.093,3.907h0.39a1.668,1.668,0,0,1-1.172,1.171H390.7q0-.681,1.954-1.171h0Zm-6.641,10.156H386.4a0.69,0.69,0,0,1-.782.781h-0.39a0.75,0.75,0,0,1,.781-0.781h0Zm-5.469,1.953h0.391v0.781h-1.172a0.75,0.75,0,0,1,.781-0.781h0Zm0,2.734a0.69,0.69,0,0,0,.781.782l1.954-.391a0.689,0.689,0,0,0,.781.781h0.39a0.69,0.69,0,0,0,.782-0.781v-0.391q-1.954,0-1.953-.781a8.971,8.971,0,0,0-2.735.781h0Zm4.688,0h1.562v-0.781h-1.562v0.781Zm-8.985.391a0.69,0.69,0,0,1-.781.781H374.68v-0.781h1.562Zm112.012,0-0.391-.781,1.954-1.563h0.39v0.391a1.5,1.5,0,0,0-1.562,1.562l1.953-.39c0,0.522.39,0.781,1.172,0.781l-0.391.781v0.391q1.172,0,1.172-.781,1.953-.781,1.953-1.954,3.711,0,10.938-7.812l5.859-7.813a0.346,0.346,0,0,0-.391-0.39l0.782-1.563H511.3l-0.781.391a0.347,0.347,0,0,0-.391-0.391,0.75,0.75,0,0,0-.781.782h0.781l-0.391,2.343a0.344,0.344,0,0,1-.39-0.39h-0.391q-3.029,5.079-5.078,5.078a2.989,2.989,0,0,0,.391,1.172q-6.738,7.031-7.422,7.031,4.491-4.687,5.859-7.813,4.3-3.318,4.3-3.906V674.34a10.458,10.458,0,0,1-2.734,1.953v-0.781a1.036,1.036,0,0,0,1.172-1.172h-0.391l-3.516,2.734v0.391h0.782q-4.787,5.47-5.86,5.469v-0.391q0.879-.1,4.3-4.687h-0.391a19.573,19.573,0,0,1-5.859,4.687q0-1.465,3.125-5.078v-0.781l-2.344,1.953H494.9l0.39-2.344q1.854-1.268,4.3-5.859v-1.172h-0.39q-4.592,4.688-6.641,4.687,2.343-6.247,4.687-6.25v-0.781h-1.171v-0.391q1.366-2.732,2.343-2.734,2.148-5.859,3.125-5.859,0.586-3.224,1.953-4.3l-0.39-.781q1.171,0,1.172-.782,0-.585-1.563-1.172a2.1,2.1,0,0,0-1.172,1.563q-11.622,24.122-23.047,28.125,0-1.562-.781-1.563a30.24,30.24,0,0,1,.781-5.859h-0.781q0,1.954-1.172,1.953,0.39,5.471,1.563,5.469a0.69,0.69,0,0,1-.781.781h-1.954V680.59a3.09,3.09,0,0,0,1.563-.391,12.8,12.8,0,0,1-.391-3.125h-0.39q0-3.318,2.343-10.547h0.391l0.781,0.391a10.458,10.458,0,0,1,1.953-2.734V663.4a1.671,1.671,0,0,0-1.171,1.172l-1.954-.39v-0.391q0.975-1.562,1.563-1.562l-0.391-.782q2.344-3.125,2.344-4.3,0-1.952,5.469-7.421a3.016,3.016,0,0,0-.391-1.172l0.391-.782q8.691-12.011,14.453-17.187a14.469,14.469,0,0,1,2.734,8.984,64.432,64.432,0,0,1-2.343,10.547v0.391h0.39l0.781-.391c0,0.261.26,0.391,0.782,0.391l0.781-.391c0,0.261.259,0.391,0.781,0.391q-0.391-2.344-.39-2.735h0.39v0.782h0.781a4.987,4.987,0,0,0-1.562-2.735q2.343-1.171,2.344-2.343h-1.172q-0.392,0-.781-1.172c0-.782.259-1.172,0.781-1.172v1.172H507c0-1.041.259-1.563,0.781-1.563q0.682,0,1.172,1.953a5.364,5.364,0,0,0-1.562,3.125h0.781v-0.781h0.781l-0.39.781v0.391h0.781v-1.953a0.75,0.75,0,0,1,.781-0.781l0.781,0.39,0.391-.781-0.781-1.172v-0.781H511.3a12.918,12.918,0,0,1,.391,3.125H510.91a12.869,12.869,0,0,1,.391,3.125,2.862,2.862,0,0,0,1.562-.781,19.5,19.5,0,0,1-.39-2.344,0.75,0.75,0,0,1,.781-0.781l-0.391-.782a20.422,20.422,0,0,1,.391-3.515,4.341,4.341,0,0,1-.391-1.953h0.391a22.247,22.247,0,0,1,1.172,5.078H515.6q0-1.953.781-1.953v-1.172h-0.391l-0.781.39v-1.562l0.781,0.39,0.782-.39q-0.586-1.561-1.172-1.563l0.39-3.125h0.391l0.391,2.735h0.781v-1.172q-2.735-4.981-2.734-5.86-6.252-3.222-6.25-4.687-6.544-8.2-11.329-8.2h-1.562q-4.591,2.15-14.844,13.672-15.918,21.583-16.8,36.328A38.947,38.947,0,0,0,467.16,680.2q6.739,10.548,11.328,10.547h1.172l1.172-.781a3.123,3.123,0,0,0,.781,1.953l-0.39.781a5.087,5.087,0,0,0,2.344-.39l0.781,0.39a3.8,3.8,0,0,0,3.906-2.734h0Zm20.7-57.813h0.391l1.562,2.735v0.781q-1.954-.78-1.953-3.516h0ZM509.348,647a0.97,0.97,0,0,0-1.172.781v1.172h0.781Zm-36.328,4.688q-0.294,1.955-1.172,1.953,0.292-1.953,1.172-1.953h0Zm34.375,0.781v-0.781q-0.879,0-1.953,1.953v0.39h0.781q0-1.56,1.172-1.562h0Zm3.906-.781h-1.563v0.39a3.033,3.033,0,0,1,1.172.391H511.3v-0.781Zm-1.953,1.562v-0.781h-0.781a3.023,3.023,0,0,1-.391,1.172v0.39h0.391a0.69,0.69,0,0,0,.781-0.781h0Zm-41.016,11.719c0-.52-0.13-0.781-0.39-0.781q0-2.539,1.171-2.735a3,3,0,0,0-.39-1.172l2.344-5.859h0.781l-3.125,10.547h-0.391Zm38.281-9.375h-0.781v1.172q0.782,0,.781-1.172h0Zm4.3,2.734v-0.781h-0.781v-0.391l0.391-.781a0.345,0.345,0,0,1-.391-0.39q-0.783,0-1.562,2.343l0.39,0.782a3.125,3.125,0,0,1,1.953-.782h0Zm1.563-2.343H511.3l0.391,0.781a0.69,0.69,0,0,0,.781-0.781h0Zm-14.063,4.687v-0.391a6.773,6.773,0,0,0,1.172-2.734h0.391v0.391a6.81,6.81,0,0,0-1.172,2.734H498.41Zm7.422-2.734v-0.782q-0.585,0-1.172,1.563V659.5q0.586,0,1.172-1.562h0Zm8.594,10.156-0.781-.391q4.3-6.738,4.3-9.375H517.16q0,1.466-2.734,6.25-3.908,3.223-3.906,4.3H511.3c0-.781.259-1.172,0.781-1.172a0.691,0.691,0,0,1,.781.782h-0.781a3.1,3.1,0,0,1,.391,1.562h0.39q0.781-.2,1.563-1.953h0Zm-4.688-7.422a1.67,1.67,0,0,0-1.171-1.172L507,661.84a0.347,0.347,0,0,1,.391.391,7.906,7.906,0,0,0,2.343-1.563h0Zm-7.812.391a0.752,0.752,0,0,0-.781-0.782l-0.782.391a0.69,0.69,0,0,0,.782.781l-0.391.782v0.39h0.781a3.086,3.086,0,0,1,.391-1.562h0Zm1.953-.391v-0.391h-0.391q-1.563.978-1.562,1.954h0.781a2.633,2.633,0,0,1,1.172-1.563h0Zm3.516-.391h-1.172l-1.563,1.172a0.691,0.691,0,0,0,.782.782v-0.782h0.39v0.782h0.391a3.571,3.571,0,0,1,1.172-1.954h0Zm3.515,2.735v-0.391a3,3,0,0,1-1.172-.39q-0.781,0-.781,1.171Zm-7.422,1.953q-0.292-1.953-1.171-1.953-1.565.977-1.563,1.953h1.172v0.391a1.035,1.035,0,0,0-1.172,1.171,0.69,0.69,0,0,0,.781.782q0.586,0,1.953-2.344h0Zm2.735,0.391v-0.782q-0.978,0-1.563,1.563v0.39h0.391a1.67,1.67,0,0,0,1.172-1.171h0ZM466.77,667.7q1.076-1.951,1.562-1.953a9.676,9.676,0,0,1-.781,3.125q-0.78,0-.781-1.172h0Zm41.8,0.782q0-.488,1.562-0.782a0.346,0.346,0,0,0-.391-0.39l0.391-.782v-0.39h-0.391q-2.247,2.735-2.734,2.734v0.781h1.953a3.024,3.024,0,0,0-.39-1.171h0Zm-20.7,10.156a14.144,14.144,0,0,1,4.3-3.906,2.037,2.037,0,0,0,1.563,1.953,4.727,4.727,0,0,0-1.172,1.953H492.16v-1.172q-0.977,0-1.562,1.562c-0.522,0-.781-0.39-0.781-1.171l-1.954,1.562v-0.781Zm6.25-2.735v-0.39l0.391-.781h0.781v0.39a0.69,0.69,0,0,0-.781.781h-0.391Zm-23.437.391a1.671,1.671,0,0,1,1.172-1.172,3.472,3.472,0,0,1-.391,1.563Zm14.844,3.125q3.514-3.516,3.515-4.3h0.782v0.391q-3.42,3.906-3.907,3.906h-0.39Zm1.953-.391q0,1.173-.781,1.172a0.971,0.971,0,0,1,.781-1.172h0ZM473.02,680.59v-0.781a2.854,2.854,0,0,0,1.562.781v1.172q-1.563-.586-1.562-1.172h0Zm19.531,8.2q0-.78,1.172-0.781a0.69,0.69,0,0,1-.781.781h-0.391Zm-6.641,2.344v-0.391a3.01,3.01,0,0,0,1.172-.39h0.391l-0.391.781H485.91Zm59.18-1.172v-0.391l-0.781-1.172v-1.171a467.64,467.64,0,0,1,53.125-62.891,60.79,60.79,0,0,1-2.344,7.422q-7.422,18.36-10.156,30.859a0.346,0.346,0,0,1,.39.391q-0.781.783-1.562,7.031a0.347,0.347,0,0,1,.391.391q-0.391,0-.391,5.468,0,1.956,1.953,5.86H586.5l0.391-1.563q0.293,0,3.125,4.3,0,4.688,13.281,8.985l7.031-1.563q8.4-5.859,8.985-5.859l-0.781-1.172h0.781a93.748,93.748,0,0,0,8.2-11.328l-0.781-.391,5.468-7.812q3.125-3.124,3.125-5.079l-0.39-.781a1.669,1.669,0,0,1,1.172-1.172v0.782h0.781q0-1.269,1.953-2.344a3.016,3.016,0,0,0-.391-1.172q0-2.051,3.125-4.3l-0.39-.781q-0.783,0-8.985,6.64-17.968,18.361-18.359,18.36-6.738,6.251-9.375,6.25h-4.3q-3.908,0-3.906-8.2a24.052,24.052,0,0,1,3.516-13.282,0.971,0.971,0,0,0-.782-1.171q3.516-6.348,3.516-7.422Q611.5,628.443,611.5,622a20.588,20.588,0,0,0-1.562-5.078,71.166,71.166,0,0,1-9.375-5.859,23.432,23.432,0,0,0-13.672,4.687q-16.407,16.017-22.266,25.391-11.037,16.5-25,35.937a0.344,0.344,0,0,1-.39-0.39l-1.563.781a40.477,40.477,0,0,1,1.563-4.688,0.345,0.345,0,0,1-.391-0.39h-0.391q-1.171,4.688-2.343,4.687a19.708,19.708,0,0,0,.781-3.906,0.345,0.345,0,0,1-.391-0.391l0.782-1.171v-0.391l-0.391-.781q2.051-4.3,3.516-5.078a3.033,3.033,0,0,0-.391-1.172l1.172-1.563a3.021,3.021,0,0,1,1.172.391,0.69,0.69,0,0,0,.781-0.781v-0.782l-0.781.391h-0.391v-0.391q-0.684,0-2.344-1.953,2.733-1.951,2.735-2.734,0-1.659,3.906-7.813L545.871,647h0.782a130.272,130.272,0,0,1,8.984-15.234q1.172-.487,5.859-6.641,2.733-.487,11.328-17.187a11.737,11.737,0,0,0-3.125-8.2q-9.766-7.42-17.578-7.422a0.69,0.69,0,0,1-.781.781,22.443,22.443,0,0,0,1.172,4.687v0.391q-13.674,25.1-13.672,25.781l-6.25,13.672q-10.547,25.88-10.547,31.25a3,3,0,0,0,.391,1.172l-0.391.781a3,3,0,0,0,.391,1.172,0.751,0.751,0,0,0-.781.781V675.9q0,0.783,1.171.782l-0.39.781,0.39,0.781-0.781.391q0.391,0.392.391,3.125,4.884,12.891,9.375,12.89,4.3-.293,4.3-1.171a19.127,19.127,0,0,1,3.125,1.562,34.089,34.089,0,0,1,5.859-5.078h0Zm92.188-32.813a3.014,3.014,0,0,0,.39-1.171h0.391v0.39l-0.391.781h-0.39Zm-94.532,6.641V663.4a20.154,20.154,0,0,0-2.734,2.344l0.391,0.781q0.487,0,2.343-2.734h0ZM665.11,698.168q7.617-.489,9.375-1.562l-0.391-.782a4.547,4.547,0,0,1-2.344.782h-2.344v-0.391q12.891-3.808,19.922-9.766h0.391l0.781,0.391q0.293-1.659,4.3-3.906,2.344-3.124,3.906-3.125a0.346,0.346,0,0,0-.39-0.391q0.78-1.465,6.347-6.445a17.388,17.388,0,0,1,2.539-3.321q6.348-7.031,6.348-7.91l0.781,0.391a30.984,30.984,0,0,1,4.688-5.078v-0.391h-0.391l-1.562,1.172h-0.782l3.125-3.906v-0.391h-0.39q-1.563.978-1.563,1.563h-0.39a68.918,68.918,0,0,0,8.2-10.157,0.345,0.345,0,0,1-.391-0.39q-24.023,22.462-40.674,32.373T658.86,687.621l-1.563-.39-1.562.39q-3.81-1.073-3.907-1.953-4.687,0-4.687-7.422a8.726,8.726,0,0,1,2.734-4.3q2.929-.388,9.375-6.25h0.391c0,0.782.259,1.172,0.781,1.172q4.688-3.222,16.406-15.625A109.708,109.708,0,0,0,690.5,637.621q2.929-3.808,5.86-13.672,0-5.859-3.516-8.593v-0.782a0.751,0.751,0,0,1,.781-0.781l-0.781-3.516q-6.446-8.2-10.547-8.2-2.735,0-11.328,4.688-7.716,4.884-20.313,18.75-19.141,24.806-19.14,44.14v1.563q0,17.285,12.109,24.219,5.077,1.854,5.078,2.734a9.731,9.731,0,0,1,4.3.781l0.781-.39a2.993,2.993,0,0,1,1.172.39l1.563-.781a0.69,0.69,0,0,0,.781.781,3.493,3.493,0,0,0,1.563-.39v1.172h0.39q5.567-1.077,5.86-1.563h0Zm-17.969-30.859a8.971,8.971,0,0,0,.781-2.735,0.345,0.345,0,0,1-.391-0.39,0.75,0.75,0,0,0-.781.781,0.749,0.749,0,0,1-.781-0.781q1.951-.294,1.953-1.172H646.75v-0.781a2.863,2.863,0,0,0,1.563-.782q1.854-3.808,3.906-5.078v-0.39a3.483,3.483,0,0,0-1.563.39q0-2.343,2.735-3.515a3.016,3.016,0,0,0-.391-1.172,2.922,2.922,0,0,0,1.172-1.172l-0.391-.781q1.173-2.148,5.079-4.3,2.439-4.2,13.281-14.844l1.953,0.391a1.575,1.575,0,0,1,1.562-1.563L687.375,622q0,8.009-39.844,45.313h-0.39ZM670.969,634.5v-0.781h-0.391q-1.955,1.464-1.953,2.344,2.344-.781,2.344-1.563h0Zm20.312,4.688V638.4q-0.585,0-1.171,1.563v0.391a1.671,1.671,0,0,0,1.171-1.172h0Zm-1.562,1.953v-0.391a14.15,14.15,0,0,0-3.906,4.688v0.39q1.268-.78,3.906-4.687h0Zm-26.953,3.906-0.391-.781q1.953-.879,1.953-1.953a0.345,0.345,0,0,1-.39-0.391q-3.128,2.247-3.125,4.3h0.781a1.671,1.671,0,0,0,1.172-1.172h0Zm-5.078-1.172a1.669,1.669,0,0,1,1.172-1.172v1.172a3,3,0,0,0-1.172.391v-0.391Zm26.562,3.516q-1.563.977-1.562,1.953,1.56-.975,1.562-1.953h0Zm-1.953,2.344q-0.879,0-1.953,1.953v0.39q1.951-1.464,1.953-2.343h0Zm-14.062,14.453h-1.172v0.781h0.39a0.69,0.69,0,0,0,.782-0.781h0Zm-24.61,5.859q1.466-2.733,1.953-2.734a4.264,4.264,0,0,0-.781-1.953l0.781-.391a2.989,2.989,0,0,0,.391,1.172,4.486,4.486,0,0,1-2.344,4.3v-0.391Zm-2.344,1.563a1.671,1.671,0,0,1,1.172-1.172q0,1.172-.781,1.172h-0.391Zm0.782,8.593h0.39q0-.78-1.172-0.781v-1.953a2.86,2.86,0,0,0,1.563-.781v1.172h-0.781v0.39q0.585,0.391,4.3,6.25-3.323,0-4.3-4.3h0Zm2.734-1.172v-1.171h0.391a2.98,2.98,0,0,0,.39,1.171v0.782a0.75,0.75,0,0,1-.781-0.782h0Zm56.641-.39-0.391-.781q-1.563.976-1.562,1.562a4.249,4.249,0,0,0,1.953-.781h0Z"/>
  <circle class="cls-3" cx="510" cy="493" r="419"/>
  <circle class="cls-3" cx="509.5" cy="492.5" r="378.5"/>
</svg>
